<mxfile host="app.diagrams.net" modified="2023-10-04T08:29:08.855Z" agent="Mozilla/5.0 (Windows NT 10.0; Win64; x64) AppleWebKit/537.36 (KHTML, like Gecko) Chrome/117.0.0.0 Safari/537.36" version="22.0.2" etag="JBX5Hc_uVgxihGEC3Hvz" type="github">
  <diagram name="Page-1" id="NBVJEllzR1ZUASM5w6jj">
    <mxGraphModel>
      <root>
        <mxCell id="0" />
        <mxCell id="1" parent="0" />
      </root>
    </mxGraphModel>
  </diagram>
</mxfile>
